<svg width="32" height="44" viewBox="0 0 32 44" fill="none" xmlns="http://www.w3.org/2000/svg">
<g clip-path="url(#clip0_1378_74)">
<path d="M22.2127 27.3535L18.1549 23.2956C18.7846 22.4816 19.1252 21.4863 19.1252 20.4394C19.1252 19.1863 18.6362 18.0113 17.7518 17.1253C16.8674 16.2394 15.6893 15.7519 14.4377 15.7519C13.1862 15.7519 12.0081 16.241 11.1237 17.1253C10.2377 18.0097 9.75024 19.1863 9.75024 20.4394C9.75024 21.691 10.2393 22.8691 11.1237 23.7535C12.0081 24.6394 13.1846 25.1269 14.4377 25.1269C15.4846 25.1269 16.4784 24.7863 17.2924 24.1581L21.3502 28.2144C21.3621 28.2263 21.3763 28.2357 21.3918 28.2422C21.4074 28.2486 21.424 28.2519 21.4409 28.2519C21.4577 28.2519 21.4744 28.2486 21.4899 28.2422C21.5055 28.2357 21.5196 28.2263 21.5315 28.2144L22.2127 27.5347C22.2246 27.5228 22.2341 27.5087 22.2405 27.4931C22.247 27.4776 22.2503 27.4609 22.2503 27.4441C22.2503 27.4272 22.247 27.4106 22.2405 27.395C22.2341 27.3795 22.2246 27.3654 22.2127 27.3535ZM16.9127 22.9144C16.2502 23.5753 15.3721 23.9394 14.4377 23.9394C13.5034 23.9394 12.6252 23.5753 11.9627 22.9144C11.3018 22.2519 10.9377 21.3738 10.9377 20.4394C10.9377 19.505 11.3018 18.6253 11.9627 17.9644C12.6252 17.3035 13.5034 16.9394 14.4377 16.9394C15.3721 16.9394 16.2518 17.3019 16.9127 17.9644C17.5737 18.6269 17.9377 19.505 17.9377 20.4394C17.9377 21.3738 17.5737 22.2535 16.9127 22.9144Z" fill="#363C44"/>
</g>
<defs>
<clipPath id="clip0_1378_74">
<rect width="14" height="14" fill="white" transform="translate(9 15)"/>
</clipPath>
</defs>
</svg>
